<svg xmlns="http://www.w3.org/2000/svg" xmlns:xlink="http://www.w3.org/1999/xlink" viewBox="0 0 379.6 446.63"><defs><style>.cls-1,.cls-10,.cls-16,.cls-21,.cls-6{fill:none;}.cls-13,.cls-2{fill:#ffac9d;}.cls-12,.cls-3,.cls-4{fill:#fc6a5a;}.cls-3{opacity:0.5;}.cls-4{opacity:0.48;}.cls-5{fill:#28202b;}.cls-13,.cls-6{stroke:#fc6a5a;}.cls-10,.cls-13,.cls-6{stroke-linecap:round;stroke-linejoin:round;}.cls-10,.cls-13,.cls-16,.cls-21,.cls-6{stroke-width:2px;}.cls-7{fill:#ffa65b;}.cls-17,.cls-8{fill:#352c38;}.cls-9{fill:#fff;}.cls-10{stroke:#352c38;}.cls-11{fill:#5d8584;}.cls-14{fill:#6f96bd;}.cls-15{clip-path:url(#clip-path);}.cls-16{stroke:#ffa65b;}.cls-16,.cls-21{stroke-miterlimit:10;}.cls-17{opacity:0.16;}.cls-18{fill:#5786ad;}.cls-19{clip-path:url(#clip-path-2);}.cls-20{clip-path:url(#clip-path-3);}.cls-21{stroke:#ef914b;}.cls-22{fill:#ef914b;}</style><clipPath id="clip-path"><path class="cls-1" d="M190.45,34.52s27.25,26.38,79.33,37c0,0,18.61-20,21-26.86s-12-24.29-33.48-35.37-50.46-12-55.89-4S190.45,34.52,190.45,34.52Z"/></clipPath><clipPath id="clip-path-2"><path class="cls-1" d="M170.45,192.15s-27.19-3-34.62,11.12-31.94,69.17-31.94,69.17-24.84-32.11-30.5-37.31a45.7,45.7,0,0,0-22.32,17.33s40.19,59,57.8,60.54,46-54.43,46-54.43Z"/></clipPath><clipPath id="clip-path-3"><path class="cls-1" d="M308.2,224.37l-15,30.55c-1,8-3.43,15.77-6,23.36-3.07,9.19-5.86,18.25-8.11,27.6a11.55,11.55,0,0,0,7.83,1.78c21.33-4,39.84-42.62,47.49-63.84Z"/></clipPath></defs><g id="Camada_2" data-name="Camada 2"><g id="BACKGROUND"><path class="cls-2" d="M331.49,218.89l-1.82-4.73s14.77-8.45,17.72-8.13-7.65,11.54-7.65,11.54Z"/><path class="cls-3" d="M331.49,218.89l-1.82-4.73s14.77-8.45,17.72-8.13-7.65,11.54-7.65,11.54Z"/><path class="cls-2" d="M329.67,214.16c8.17-1.84,19.65.54,19.65.54s7.48-16.12,11.13-16.44c1.57-.14-.21,4.48-2.45,9.65,4.79-5.1,10-9.91,11.34-9.72,1.74.25-4.41,9.1-8.73,15,5.64-5.59,13.95-13.39,15.34-12.24,2.13,1.77-14.88,17.81-14.88,17.81s16.83-13.68,18.53-11.31c0,0-12.66,16.57-24.39,19.25s-21.81,4-21.81,4l-20,28.33-5.78-16.24S321.51,216,329.67,214.16Z"/><path class="cls-3" d="M318.22,225.27q7,3.58,14.16,6.91l-19,26.89-5.78-16.24A173.39,173.39,0,0,1,318.22,225.27Z"/></g><g id="OBJECTS"><path class="cls-2" d="M187.66,164s4.9,20.75.34,28.3-36.07-15.72-37.61,22.64,89.17,13.2,97.89-2.52-31.81-8.8-32.61-24.52,2.58-35,2.58-35Z"/><path class="cls-4" d="M189.1,189.6c9-5.44,17.79-11.14,26.8-16.49.73-10.93,2.35-20.2,2.35-20.2L187.66,164S191.62,180.73,189.1,189.6Z"/><path class="cls-5" d="M265.28,69.18s32.77-12,46,17.45S270.47,157.85,287,175.06s25.23,3.54,25.23,3.54-2.35,19.33-29,16.74-42.92-22.64-30.89-49.28S265.28,69.18,265.28,69.18Z"/><path class="cls-2" d="M161.05,66.59s-31.6,62.25-24.05,80.17,31.13,30.19,59.89,26.41,46.69-29.71,52.82-56.12-17-59.42-17-59.42S188.88,39.23,161.05,66.59Z"/><path class="cls-2" d="M240.75,125.54s15.57-20.75,29.24-6.6-23.11,47.16-36.78,28.29S240.75,125.54,240.75,125.54Z"/><path class="cls-6" d="M239.57,147.82s7.08-2.71.59-7.31c0,0,11.79-22.94,22.17-17.09s-.59,16.5-.59,16.5"/><circle class="cls-7" cx="235.92" cy="153.23" r="7.31" transform="translate(-39.25 211.7) rotate(-45)"/><path class="cls-8" d="M226.61,65.88s-12.74,26.41,17,48.12c0,0-16,6.12-11.55,25.92,0,0,20-36.31,38-21,0,0,17.45-28.54-3.77-51.88C249.7,48.89,230.85,52,226.61,65.88Z"/><path class="cls-8" d="M228.61,66.35s-24.88,14.86-51.05,7.08c0,0,10.61-1.18,17.21-5.9,0,0-17,7.08-38.91-5.19,0,0,11.79-36.31,58.72-27.11S228.61,66.35,228.61,66.35Z"/><path class="cls-9" d="M199.87,127.1s-11.92.23-12.2-15S199,89.56,206.84,96s6.57,18.41,4.42,23.15C207.16,128.14,199.87,127.1,199.87,127.1Z"/><path class="cls-10" d="M191.08,99.52s5.45-8,12.84-5.67,9.5,15.37,9.05,19.69a17.5,17.5,0,0,0,7.8-1.39"/><path class="cls-10" d="M213.1,108.48s1.72,1,5.15-.68"/><path class="cls-11" d="M202.05,125s-8.34.16-8.53-10.52,7.95-15.73,13.4-11.25,4.6,12.88,3.09,16.19C207.15,125.75,202.05,125,202.05,125Z"/><path class="cls-8" d="M202.24,117.88s-3.25.07-3.33-4.1,3.1-6.13,5.23-4.38,1.79,5,1.2,6.31C204.23,118.16,202.24,117.88,202.24,117.88Z"/><path class="cls-9" d="M197.34,115.22s-5.27,0-5.52-5a5.45,5.45,0,0,1,8.34-5.11,5.8,5.8,0,0,1,2.15,7.63A5.27,5.27,0,0,1,197.34,115.22Z"/><path class="cls-8" d="M187.21,85.72C198.45,79.6,211.73,81,219,92.28a.5.5,0,0,1-.81.58c-7.31-10-19.34-10.78-29.44-4.56a1.49,1.49,0,1,1-1.5-2.58Z"/><path class="cls-9" d="M154.47,120.78s9.44,1.72,11.6-11.94S159.88,87.23,152.87,92s-7.56,15.67-6.44,20.18C148.54,120.79,154.47,120.78,154.47,120.78Z"/><path class="cls-10" d="M165,97.18s-3.32-7.86-9.49-6.72S146,103,145.78,107a12.77,12.77,0,0,1-6-2.24"/><path class="cls-10" d="M146.31,102.42s-1.49.64-4-1.27"/><path class="cls-11" d="M158.59,119.14s-6.78.22-6.85-9.63,6.59-14.57,11-10.48,3.63,11.83,2.38,14.9C162.73,119.77,158.59,119.14,158.59,119.14Z"/><path class="cls-8" d="M158.8,112.56s-2.64.08-2.67-3.76,2.57-5.68,4.28-4.08,1.42,4.61.93,5.8C160.41,112.8,158.8,112.56,158.8,112.56Z"/><path class="cls-9" d="M154.84,110.14a4.46,4.46,0,0,1-4.45-4.6c-.16-4.62,4-6.76,6.82-4.78s2.45,5.6,1.69,7A4.17,4.17,0,0,1,154.84,110.14Z"/><path class="cls-8" d="M166.65,86.45c-2.75-4.44-7.58-7.07-11.9-2.79a20.65,20.65,0,0,0-3.3,4.14.5.5,0,0,1-.87-.5c4.38-9.17,12-10.82,18.57-2.49a1.5,1.5,0,1,1-2.5,1.64Z"/><path class="cls-12" d="M153.55,140.84s11.43-9.93,16.8-2.56c0,0,5.33-8.47,27.65,3.13a25.21,25.21,0,0,1-22,14.34C159.88,156.54,153.55,140.84,153.55,140.84Z"/><path class="cls-9" d="M153.56,140.61l44.44.8S174.55,157.51,153.56,140.61Z"/><path class="cls-13" d="M158.73,129.14s-3.8-8.79-.46-11.85S170.45,121,170.45,121"/><path class="cls-14" d="M190.45,34.52s27.25,26.38,79.33,37c0,0,18.61-20,21-26.86s-12-24.29-33.48-35.37-50.46-12-55.89-4S190.45,34.52,190.45,34.52Z"/><g class="cls-15"><path class="cls-16" d="M184.85,25.1s39,33.71,101.4,46.42"/><path class="cls-16" d="M187.44,20.86s41.17,33.57,100.24,45.89"/></g><path class="cls-17" d="M257.26,9.29C237.12-1.12,210.33-2.58,202.63,3.91,218.75,15.47,242,29.1,269.47,36.08a6.6,6.6,0,0,1,.06,3.81C267.42,46,258.2,64,249.12,66.16a203.85,203.85,0,0,0,20.66,5.36s18.61-20,21-26.86S278.72,20.37,257.26,9.29Z"/><path class="cls-7" d="M252.45,42.64a6.9,6.9,0,1,0,8-5.58A6.9,6.9,0,0,0,252.45,42.64Z"/><path class="cls-7" d="M254.84,46.72s-4.69-1.92-2.56-9.8L234.4,33.73s-.33,4.16,9.36,5.26l-7-1.24s-.46,4.93,11,5.51C247.79,43.26,249.22,48,254.84,46.72Z"/><path class="cls-7" d="M262.35,48.05s5.06-.17,5.79-8.31L286,42.93s-1.13,4-10.61,1.7l7,1.24s-1.27,4.79-12.22,1.38C270.16,47.25,267.18,51.19,262.35,48.05Z"/><path class="cls-2" d="M49,230l1.32-4.89s-15.55-6.9-18.46-6.28,8.8,10.69,8.8,10.69Z"/><path class="cls-3" d="M49,230l1.32-4.89s-15.55-6.9-18.46-6.28,8.8,10.69,8.8,10.69Z"/><path class="cls-2" d="M50.35,225.09c-8.3-1-19.48,2.55-19.48,2.55s-9.09-15.27-12.76-15.22c-1.58,0,.66,4.44,3.42,9.35-5.28-4.58-11-8.83-12.27-8.5-1.71.43,5.32,8.6,10.22,14-6.18-5-15.25-11.9-16.51-10.61-1.94,2,16.62,16.19,16.62,16.19S1.45,221,0,223.53c0,0,14.3,15.19,26.24,16.65S48.35,242,48.35,242l22.82,26.13,4.09-16.75S58.66,226.08,50.35,225.09Z"/><path class="cls-3" d="M62.89,235q-6.62,4.29-13.38,8.33l21.66,24.8,4.09-16.75A175.41,175.41,0,0,0,62.89,235Z"/><path class="cls-14" d="M170.45,192.15s-27.19-3-34.62,11.12-31.94,69.17-31.94,69.17-24.84-32.11-30.5-37.31a45.7,45.7,0,0,0-22.32,17.33s40.19,59,57.8,60.54,46-54.43,46-54.43Z"/><path class="cls-18" d="M134.79,254.25a84.33,84.33,0,0,0-4,26.3c0,4.39.9,7.93,3.65,11.33a.64.64,0,0,1,.1.13,285.15,285.15,0,0,0,20.37-33.44l10.59-45.29C151.78,223.79,140.2,237.64,134.79,254.25Z"/><g class="cls-19"><path class="cls-16" d="M81.12,237.37A264.17,264.17,0,0,0,45.87,265"/><path class="cls-16" d="M84.49,241.69A270,270,0,0,0,49.2,269"/></g><path class="cls-18" d="M147.59,305.77s-28,18.87-32.38,51.56,11.63,89.3,11.63,89.3H243.35s27.49-91.18-18.73-143.69S147.59,305.77,147.59,305.77Z"/><path class="cls-14" d="M170.45,192.15l23.06,29.36L223.89,194s31.54-2.69,33.43,9.1-33.43,77.34-33.43,77.34,11.62,20.75,15.68,36.79c0,0-18.53,19.81-48.49,23.11l-8.27-23.58-9,23.58s-30.18-3.78-41-25.94c0,0,15.88-24.05,26.1-33.49l-2-8.49s-21.14-9-14.6-29.24,8.09-28.29,8.09-28.29S134.51,189.19,170.45,192.15Z"/><path class="cls-18" d="M231.37,266.17c3.49-6.79,7.75-15.29,11.82-23.88-3.8-6.94-6.57-14.69-9.33-21.9C228.67,235.71,223.48,252.32,231.37,266.17Z"/><circle class="cls-7" cx="185.56" cy="260.58" r="3.85"/><circle class="cls-7" cx="183.37" cy="282.19" r="3.85"/><circle class="cls-7" cx="181.71" cy="303.81" r="3.85"/><path class="cls-14" d="M234,232.1s31.64,79.53,53,75.56,39.84-42.62,47.49-63.84L308.2,224.37l-19.15,39.11S267.67,190.36,243.23,194,234,232.1,234,232.1Z"/><path class="cls-18" d="M308.2,224.37l-15,30.55c-1,8-3.43,15.77-6,23.36-3.07,9.19-5.86,18.25-8.11,27.6a11.55,11.55,0,0,0,7.83,1.78c21.33-4,39.84-42.62,47.49-63.84Z"/><g class="cls-20"><path class="cls-21" d="M338.74,255.59a264.42,264.42,0,0,0-35.69-27.07"/><path class="cls-21" d="M335.42,259.94a271,271,0,0,0-35.35-27.21"/></g><path class="cls-22" d="M197.38,206.89S186.86,180,170.45,184.25s-5.37,13.21,23.06,37.26c0,0,48.36-18.19,49.72-27.49s-8.89-15-14.62-12.6S197.38,206.89,197.38,206.89Z"/><path class="cls-7" d="M203.28,212.68s1.25-14.81-12.2-11.48-5.64,13.47-5.64,13.47-25.75-1-28.54,35.14c0,0,22.33,3.77,36.61-28.3,0,0-12.74,25,8.82,42,0,0,16.92-16.28,0-45.46Z"/></g></g></svg>