<svg width="200" height="200" viewBox="0 0 200 200" fill="none" xmlns="http://www.w3.org/2000/svg">
<path d="M174.999 24.9642H24.999C18.0955 24.9642 12.499 30.5606 12.499 37.4642V137.464C12.499 144.368 18.0955 149.964 24.999 149.964H174.999C181.903 149.964 187.499 144.368 187.499 137.464V37.4642C187.499 30.5606 181.903 24.9642 174.999 24.9642Z" stroke="#28306E" stroke-width="10" stroke-linejoin="round"/>
<path d="M118.749 175.002L115.624 150.002H84.374L81.249 175.002H118.749Z" fill="#28306E" stroke="#28306E" stroke-width="1.5" stroke-linecap="round" stroke-linejoin="round"/>
<path d="M143.749 174.979H56.2495" stroke="#28306E" stroke-width="1.5" stroke-linecap="round" stroke-linejoin="round"/>
<path d="M12.499 118.714V137.464C12.5083 140.777 13.8282 143.951 16.1704 146.293C18.5126 148.635 21.6867 149.955 24.999 149.964H174.999C178.311 149.955 181.485 148.635 183.828 146.293C186.17 143.951 187.49 140.777 187.499 137.464V118.714H12.499ZM99.999 143.714C98.7629 143.714 97.5545 143.348 96.5267 142.661C95.4989 141.974 94.6978 140.998 94.2248 139.856C93.7517 138.714 93.6279 137.457 93.8691 136.245C94.1103 135.032 94.7055 133.919 95.5796 133.045C96.4537 132.171 97.5673 131.575 98.7797 131.334C99.9921 131.093 101.249 131.217 102.391 131.69C103.533 132.163 104.509 132.964 105.196 133.992C105.882 135.02 106.249 136.228 106.249 137.464C106.249 139.122 105.591 140.711 104.418 141.884C103.246 143.056 101.657 143.714 99.999 143.714Z" fill="#28306E"/>
</svg>
