<svg width="51" height="50" viewBox="0 0 51 50" fill="none" xmlns="http://www.w3.org/2000/svg">
<mask id="path-1-inside-1_365_4029" fill="white">
<path d="M12.3868 3.12546C12.322 3.12486 12.258 3.1404 12.2007 3.17067C12.1434 3.20094 12.0946 3.24499 12.0585 3.29885C12.0225 3.35271 12.0004 3.41469 11.9943 3.47921C11.9882 3.54373 11.9982 3.60875 12.0235 3.66843L12.2481 4.1987L16.2227 13.4663C16.2497 13.5293 16.2929 13.5841 16.3478 13.6252C16.4027 13.6663 16.4674 13.6922 16.5355 13.7003C16.6036 13.7084 16.6727 13.6985 16.7357 13.6714C16.7987 13.6444 16.8535 13.6013 16.8946 13.5464L24.2305 3.75046C24.2741 3.69242 24.3006 3.62341 24.3071 3.55116C24.3136 3.47891 24.2999 3.40628 24.2674 3.34139C24.235 3.27651 24.1851 3.22194 24.1234 3.1838C24.0617 3.14566 23.9906 3.12546 23.918 3.12546H12.3868ZM41.5089 5.67038L37.4776 15.0815C37.4522 15.1409 37.442 15.2057 37.4478 15.27C37.4537 15.3344 37.4754 15.3963 37.511 15.4502C37.5466 15.5041 37.595 15.5483 37.6519 15.5789C37.7088 15.6095 37.7724 15.6255 37.837 15.6255H47.7003C47.7699 15.6255 47.8383 15.6069 47.8983 15.5716C47.9584 15.5363 48.0079 15.4856 48.0418 15.4248C48.0756 15.3639 48.0926 15.2951 48.0909 15.2255C48.0893 15.1559 48.069 15.0879 48.0323 15.0288L42.1993 5.61862C42.1616 5.55804 42.108 5.50893 42.0444 5.47664C41.9808 5.44434 41.9095 5.43009 41.8384 5.43542C41.7672 5.44075 41.6989 5.46547 41.6408 5.50689C41.5827 5.54831 41.5371 5.60486 41.5089 5.67038ZM8.80084 5.62253L2.96979 15.0288C2.93305 15.0879 2.9128 15.1559 2.91113 15.2255C2.90947 15.2951 2.92644 15.3639 2.96031 15.4248C2.99417 15.4856 3.04369 15.5363 3.10374 15.5716C3.16379 15.6069 3.23217 15.6255 3.30182 15.6255H13.1651C13.2297 15.6254 13.2934 15.6093 13.3502 15.5786C13.4071 15.5478 13.4555 15.5035 13.491 15.4495C13.5265 15.3955 13.5481 15.3335 13.5538 15.2691C13.5594 15.2047 13.549 15.1399 13.5235 15.0805L9.48444 5.67429C9.45555 5.61039 9.41 5.55545 9.35256 5.51523C9.29512 5.47501 9.22791 5.45099 9.15799 5.44569C9.08807 5.4404 9.01801 5.45403 8.95517 5.48514C8.89233 5.51625 8.83902 5.56371 8.80084 5.62253ZM38.9053 3.12546H26.6544C26.619 3.12523 26.5843 3.1349 26.5542 3.15336C26.524 3.17183 26.4996 3.19837 26.4838 3.22996C26.4679 3.26156 26.4612 3.29697 26.4645 3.33217C26.4677 3.36737 26.4807 3.40097 26.502 3.42917L34.3067 13.8257C34.3266 13.8524 34.3532 13.8733 34.3839 13.8865C34.4145 13.8996 34.448 13.9044 34.4811 13.9005C34.5142 13.8965 34.5456 13.8839 34.5723 13.8639C34.5989 13.8439 34.6198 13.8172 34.6329 13.7866L38.7423 4.19968L39.0743 3.38522C39.086 3.35727 39.0907 3.32689 39.0881 3.2967C39.0855 3.26651 39.0756 3.2374 39.0593 3.21186C39.043 3.18632 39.0207 3.16512 38.9944 3.15008C38.9681 3.13503 38.9385 3.12658 38.9083 3.12546H38.9053ZM23.8399 43.7505L15.1065 18.9956C15.0809 18.9237 15.0336 18.8615 14.9711 18.8176C14.9087 18.7737 14.8342 18.7503 14.7579 18.7505H3.00983C2.94177 18.7503 2.87503 18.7692 2.81721 18.8051C2.75939 18.841 2.71281 18.8924 2.68278 18.9534C2.65275 19.0145 2.64049 19.0828 2.64737 19.1505C2.65426 19.2182 2.68003 19.2826 2.72174 19.3364L23.8155 46.6616C23.8869 46.7541 23.9888 46.8182 24.103 46.8427C24.2172 46.8672 24.3365 46.8504 24.4395 46.7954C24.5432 46.7408 24.6237 46.6509 24.6666 46.5419C24.7094 46.4329 24.7117 46.3121 24.6729 46.2016L23.8399 43.7505ZM47.9903 18.7505H36.2422C36.1663 18.7504 36.0923 18.774 36.0303 18.8179C35.9684 18.8618 35.9216 18.9239 35.8965 18.9956L26.3067 46.1596C26.2664 46.2737 26.2681 46.3983 26.3114 46.5113C26.3547 46.6242 26.4368 46.718 26.543 46.7758C26.6493 46.8334 26.7725 46.8513 26.8907 46.8265C27.0089 46.8016 27.1145 46.7355 27.1885 46.6401L48.2784 19.3364C48.3201 19.2826 48.3459 19.2182 48.3528 19.1505C48.3596 19.0828 48.3474 19.0145 48.3173 18.9534C48.2873 18.8924 48.2407 18.841 48.1829 18.8051C48.1251 18.7692 48.0583 18.7503 47.9903 18.7505ZM25.8126 7.70847L31.2813 15.0005C31.3248 15.0585 31.3513 15.1275 31.3579 15.1998C31.3644 15.272 31.3506 15.3446 31.3182 15.4095C31.2858 15.4744 31.2359 15.529 31.1742 15.5671C31.1125 15.6053 31.0414 15.6255 30.9688 15.6255H20.0313C19.9588 15.6255 19.8877 15.6053 19.8259 15.5671C19.7642 15.529 19.7144 15.4744 19.6819 15.4095C19.6495 15.3446 19.6357 15.272 19.6423 15.1998C19.6488 15.1275 19.6753 15.0585 19.7188 15.0005L25.1876 7.70847C25.2239 7.65995 25.2711 7.62058 25.3254 7.59346C25.3796 7.56634 25.4394 7.55222 25.5001 7.55222C25.5607 7.55222 25.6205 7.56634 25.6748 7.59346C25.729 7.62058 25.7762 7.65995 25.8126 7.70847ZM25.129 38.0122L18.5176 19.271C18.4969 19.2121 18.4905 19.1491 18.4991 19.0872C18.5078 19.0254 18.5311 18.9665 18.5671 18.9155C18.6032 18.8645 18.6509 18.8229 18.7064 18.7942C18.7618 18.7655 18.8234 18.7505 18.8858 18.7505H32.1143C32.1768 18.7505 32.2383 18.7655 32.2937 18.7942C32.3492 18.8229 32.3969 18.8645 32.433 18.9155C32.4691 18.9665 32.4924 19.0254 32.501 19.0872C32.5096 19.1491 32.5032 19.2121 32.4825 19.271L25.8682 38.0122C25.8412 38.0882 25.7914 38.1541 25.7254 38.2007C25.6595 38.2472 25.5808 38.2722 25.5001 38.2722C25.4193 38.2722 25.3406 38.2472 25.2747 38.2007C25.2088 38.1541 25.1589 38.0882 25.1319 38.0122H25.129Z"/>
</mask>
<path d="M12.3868 3.12546C12.322 3.12486 12.258 3.1404 12.2007 3.17067C12.1434 3.20094 12.0946 3.24499 12.0585 3.29885C12.0225 3.35271 12.0004 3.41469 11.9943 3.47921C11.9882 3.54373 11.9982 3.60875 12.0235 3.66843L12.2481 4.1987L16.2227 13.4663C16.2497 13.5293 16.2929 13.5841 16.3478 13.6252C16.4027 13.6663 16.4674 13.6922 16.5355 13.7003C16.6036 13.7084 16.6727 13.6985 16.7357 13.6714C16.7987 13.6444 16.8535 13.6013 16.8946 13.5464L24.2305 3.75046C24.2741 3.69242 24.3006 3.62341 24.3071 3.55116C24.3136 3.47891 24.2999 3.40628 24.2674 3.34139C24.235 3.27651 24.1851 3.22194 24.1234 3.1838C24.0617 3.14566 23.9906 3.12546 23.918 3.12546H12.3868ZM41.5089 5.67038L37.4776 15.0815C37.4522 15.1409 37.442 15.2057 37.4478 15.27C37.4537 15.3344 37.4754 15.3963 37.511 15.4502C37.5466 15.5041 37.595 15.5483 37.6519 15.5789C37.7088 15.6095 37.7724 15.6255 37.837 15.6255H47.7003C47.7699 15.6255 47.8383 15.6069 47.8983 15.5716C47.9584 15.5363 48.0079 15.4856 48.0418 15.4248C48.0756 15.3639 48.0926 15.2951 48.0909 15.2255C48.0893 15.1559 48.069 15.0879 48.0323 15.0288L42.1993 5.61862C42.1616 5.55804 42.108 5.50893 42.0444 5.47664C41.9808 5.44434 41.9095 5.43009 41.8384 5.43542C41.7672 5.44075 41.6989 5.46547 41.6408 5.50689C41.5827 5.54831 41.5371 5.60486 41.5089 5.67038ZM8.80084 5.62253L2.96979 15.0288C2.93305 15.0879 2.9128 15.1559 2.91113 15.2255C2.90947 15.2951 2.92644 15.3639 2.96031 15.4248C2.99417 15.4856 3.04369 15.5363 3.10374 15.5716C3.16379 15.6069 3.23217 15.6255 3.30182 15.6255H13.1651C13.2297 15.6254 13.2934 15.6093 13.3502 15.5786C13.4071 15.5478 13.4555 15.5035 13.491 15.4495C13.5265 15.3955 13.5481 15.3335 13.5538 15.2691C13.5594 15.2047 13.549 15.1399 13.5235 15.0805L9.48444 5.67429C9.45555 5.61039 9.41 5.55545 9.35256 5.51523C9.29512 5.47501 9.22791 5.45099 9.15799 5.44569C9.08807 5.4404 9.01801 5.45403 8.95517 5.48514C8.89233 5.51625 8.83902 5.56371 8.80084 5.62253ZM38.9053 3.12546H26.6544C26.619 3.12523 26.5843 3.1349 26.5542 3.15336C26.524 3.17183 26.4996 3.19837 26.4838 3.22996C26.4679 3.26156 26.4612 3.29697 26.4645 3.33217C26.4677 3.36737 26.4807 3.40097 26.502 3.42917L34.3067 13.8257C34.3266 13.8524 34.3532 13.8733 34.3839 13.8865C34.4145 13.8996 34.448 13.9044 34.4811 13.9005C34.5142 13.8965 34.5456 13.8839 34.5723 13.8639C34.5989 13.8439 34.6198 13.8172 34.6329 13.7866L38.7423 4.19968L39.0743 3.38522C39.086 3.35727 39.0907 3.32689 39.0881 3.2967C39.0855 3.26651 39.0756 3.2374 39.0593 3.21186C39.043 3.18632 39.0207 3.16512 38.9944 3.15008C38.9681 3.13503 38.9385 3.12658 38.9083 3.12546H38.9053ZM23.8399 43.7505L15.1065 18.9956C15.0809 18.9237 15.0336 18.8615 14.9711 18.8176C14.9087 18.7737 14.8342 18.7503 14.7579 18.7505H3.00983C2.94177 18.7503 2.87503 18.7692 2.81721 18.8051C2.75939 18.841 2.71281 18.8924 2.68278 18.9534C2.65275 19.0145 2.64049 19.0828 2.64737 19.1505C2.65426 19.2182 2.68003 19.2826 2.72174 19.3364L23.8155 46.6616C23.8869 46.7541 23.9888 46.8182 24.103 46.8427C24.2172 46.8672 24.3365 46.8504 24.4395 46.7954C24.5432 46.7408 24.6237 46.6509 24.6666 46.5419C24.7094 46.4329 24.7117 46.3121 24.6729 46.2016L23.8399 43.7505ZM47.9903 18.7505H36.2422C36.1663 18.7504 36.0923 18.774 36.0303 18.8179C35.9684 18.8618 35.9216 18.9239 35.8965 18.9956L26.3067 46.1596C26.2664 46.2737 26.2681 46.3983 26.3114 46.5113C26.3547 46.6242 26.4368 46.718 26.543 46.7758C26.6493 46.8334 26.7725 46.8513 26.8907 46.8265C27.0089 46.8016 27.1145 46.7355 27.1885 46.6401L48.2784 19.3364C48.3201 19.2826 48.3459 19.2182 48.3528 19.1505C48.3596 19.0828 48.3474 19.0145 48.3173 18.9534C48.2873 18.8924 48.2407 18.841 48.1829 18.8051C48.1251 18.7692 48.0583 18.7503 47.9903 18.7505ZM25.8126 7.70847L31.2813 15.0005C31.3248 15.0585 31.3513 15.1275 31.3579 15.1998C31.3644 15.272 31.3506 15.3446 31.3182 15.4095C31.2858 15.4744 31.2359 15.529 31.1742 15.5671C31.1125 15.6053 31.0414 15.6255 30.9688 15.6255H20.0313C19.9588 15.6255 19.8877 15.6053 19.8259 15.5671C19.7642 15.529 19.7144 15.4744 19.6819 15.4095C19.6495 15.3446 19.6357 15.272 19.6423 15.1998C19.6488 15.1275 19.6753 15.0585 19.7188 15.0005L25.1876 7.70847C25.2239 7.65995 25.2711 7.62058 25.3254 7.59346C25.3796 7.56634 25.4394 7.55222 25.5001 7.55222C25.5607 7.55222 25.6205 7.56634 25.6748 7.59346C25.729 7.62058 25.7762 7.65995 25.8126 7.70847ZM25.129 38.0122L18.5176 19.271C18.4969 19.2121 18.4905 19.1491 18.4991 19.0872C18.5078 19.0254 18.5311 18.9665 18.5671 18.9155C18.6032 18.8645 18.6509 18.8229 18.7064 18.7942C18.7618 18.7655 18.8234 18.7505 18.8858 18.7505H32.1143C32.1768 18.7505 32.2383 18.7655 32.2937 18.7942C32.3492 18.8229 32.3969 18.8645 32.433 18.9155C32.4691 18.9665 32.4924 19.0254 32.501 19.0872C32.5096 19.1491 32.5032 19.2121 32.4825 19.271L25.8682 38.0122C25.8412 38.0882 25.7914 38.1541 25.7254 38.2007C25.6595 38.2472 25.5808 38.2722 25.5001 38.2722C25.4193 38.2722 25.3406 38.2472 25.2747 38.2007C25.2088 38.1541 25.1589 38.0882 25.1319 38.0122H25.129Z" fill="white" stroke="white" stroke-width="0.09375" mask="url(#path-1-inside-1_365_4029)"/>
</svg>
