<svg width="50" height="50" viewBox="0 0 50 50" fill="none" xmlns="http://www.w3.org/2000/svg">
<path d="M31.2266 24.9949C31.2266 28.4337 28.4388 31.2215 25 31.2215C21.5612 31.2215 18.7734 28.4337 18.7734 24.9949C18.7734 21.5561 21.5612 18.7683 25 18.7683C28.4388 18.7683 31.2266 21.5561 31.2266 24.9949Z" fill="white" stroke="white" stroke-width="0.046875"/>
<path d="M47.9336 23.2994C45.3496 19.3033 41.9971 15.9088 38.2393 13.482C34.082 10.7945 29.4922 9.37364 24.9668 9.37364C20.8144 9.37364 16.7314 10.5602 12.831 12.9C8.85351 15.2858 5.24999 18.7711 2.12011 23.2584C1.76678 23.7655 1.57218 24.3663 1.56105 24.9843C1.54992 25.6022 1.72276 26.2096 2.05761 26.7291C4.63671 30.7652 7.95605 34.1647 11.6553 36.5582C15.8203 39.2565 20.3027 40.6236 24.9668 40.6236C29.5283 40.6236 34.1279 39.2145 38.2676 36.5494C42.0234 34.1305 45.3691 30.7232 47.9434 26.694C48.2667 26.1865 48.4376 25.5969 48.4359 24.9953C48.4341 24.3936 48.2598 23.805 47.9336 23.2994ZM25 34.3736C23.1458 34.3736 21.3332 33.8238 19.7915 32.7937C18.2498 31.7635 17.0482 30.2994 16.3386 28.5863C15.6291 26.8732 15.4434 24.9882 15.8051 23.1697C16.1669 21.3511 17.0598 19.6806 18.3709 18.3695C19.682 17.0584 21.3524 16.1655 23.171 15.8038C24.9896 15.442 26.8746 15.6277 28.5877 16.3373C30.3007 17.0468 31.7649 18.2485 32.795 19.7902C33.8252 21.3319 34.375 23.1444 34.375 24.9986C34.3722 27.4842 33.3835 29.8671 31.626 31.6246C29.8684 33.3822 27.4855 34.3708 25 34.3736Z" fill="white"/>
</svg>
