<svg width="51" height="50" viewBox="0 0 51 50" fill="none" xmlns="http://www.w3.org/2000/svg">
<path d="M34.875 7.83714L34.8751 7.83714C37.2604 7.82982 39.6205 7.34784 41.8177 6.41928C42.0814 6.30799 42.3685 6.26367 42.6534 6.29027C42.9383 6.31687 43.2123 6.41357 43.4508 6.57174C43.6893 6.72991 43.8849 6.94464 44.0203 7.19679C44.1556 7.44893 44.2265 7.73065 44.2266 8.01683V29.4387C44.2262 29.8138 44.1165 30.1807 43.9108 30.4945C43.7052 30.8082 43.4126 31.0553 43.0687 31.2053L43.0774 31.2251L43.0687 31.2053C42.2199 31.5766 39.1178 32.7903 34.875 32.7903C32.5209 32.7903 29.5708 32.0939 26.4439 31.3544L26.4395 31.373L26.4439 31.3544L26.4395 31.3533C22.928 30.5238 19.294 29.6653 16.125 29.6653C12.5221 29.6653 10.6761 30.2105 9.86579 30.5568L9.85156 30.5629V30.5783V45.3137C9.85156 45.7219 9.68941 46.1133 9.40078 46.402C9.11215 46.6906 8.72068 46.8528 8.3125 46.8528C7.90432 46.8528 7.51285 46.6906 7.22422 46.402C6.93559 46.1133 6.77344 45.7219 6.77344 45.3137V6.65453C6.77344 6.65453 6.77344 6.65453 6.77344 6.65453C6.77355 6.24923 6.87982 5.85103 7.08167 5.49958C7.28352 5.14812 7.57391 4.85567 7.92393 4.65133L7.91211 4.63109L7.92388 4.65135C9.10074 3.96761 11.4771 3.14964 16.125 3.14964C19.7522 3.14964 23.8104 4.58306 27.3962 5.84959L27.4014 5.85143C28.845 6.36162 30.2495 6.85797 31.5245 7.22672C32.7991 7.59539 33.9463 7.83714 34.875 7.83714Z" fill="white" stroke="white" stroke-width="0.046875"/>
</svg>
