<svg width="559" height="132" viewBox="0 0 559 132" fill="none" xmlns="http://www.w3.org/2000/svg">
<path d="M184.845 45.9419C187.925 47.1209 191.2 47.7076 194.497 47.6711C197.86 47.7015 201.196 47.0787 204.32 45.8371C207.243 44.6617 209.853 42.823 211.943 40.4661L207.687 36.3396C206.051 38.1404 204.039 39.5583 201.793 40.4923C199.566 41.3879 197.185 41.8331 194.786 41.8023C192.336 41.8281 189.904 41.3834 187.621 40.4923C185.483 39.6652 183.533 38.418 181.885 36.8243C180.264 35.2449 178.985 33.3501 178.126 31.2568C177.223 29.0232 176.777 26.6311 176.816 24.2221C176.779 21.809 177.224 19.4129 178.126 17.1743C178.984 15.0728 180.263 13.1692 181.885 11.5806C183.533 9.98693 185.483 8.73971 187.621 7.91262C189.904 7.02155 192.336 6.57684 194.786 6.60262C197.185 6.57179 199.566 7.01704 201.793 7.91262C204.028 8.83638 206.038 10.2303 207.687 11.9998L211.943 7.87332C209.854 5.53438 207.242 3.7212 204.32 2.58092C198.061 0.19831 191.149 0.170379 184.871 2.50232C182.005 3.6162 179.388 5.2857 177.169 7.41482C174.987 9.5286 173.25 12.0587 172.061 14.8556C170.832 17.823 170.221 21.0103 170.267 24.2221C170.234 27.4367 170.858 30.6241 172.101 33.5886C173.287 36.3979 175.027 38.9395 177.216 41.0618C179.406 43.1842 182 44.8439 184.845 45.9419Z" fill="#28306E"/>
<path d="M227.896 1.29712H221.347V47.1471H227.896V1.29712Z" fill="#28306E"/>
<path d="M273.908 44.2652C277.512 42.4543 280.531 39.6615 282.617 36.2087C284.737 32.5757 285.811 28.4275 285.721 24.2222C285.811 20.017 284.737 15.8688 282.617 12.2357C280.531 8.78297 277.512 5.99016 273.908 4.17925C269.889 2.19108 265.45 1.20242 260.967 1.29725H241.648V47.1473H260.967C265.45 47.2421 269.889 46.2534 273.908 44.2652ZM248.197 41.4487V6.99575H260.64C264.053 6.90945 267.437 7.65107 270.502 9.15725C273.154 10.5243 275.365 12.6133 276.881 15.1832C278.454 17.931 279.247 21.0566 279.173 24.2222C279.24 27.3747 278.448 30.486 276.881 33.222C275.358 35.8192 273.121 37.9245 270.437 39.2873C267.392 40.7831 264.031 41.5245 260.64 41.4487H248.197Z" fill="#28306E"/>
<path d="M299.932 35.6846H324.307L329.336 47.1471H336.212L315.387 1.29712H308.839L288.145 47.1471H294.89L299.932 35.6846ZM312.113 7.95192L322.001 30.4446H302.224L312.113 7.95192Z" fill="#28306E"/>
<path d="M375.269 44.2652C378.877 42.4545 381.9 39.6619 383.992 36.2087C386.111 32.5757 387.185 28.4275 387.096 24.2222C387.185 20.0169 386.111 15.8687 383.992 12.2357C381.9 8.78245 378.877 5.98986 375.269 4.17919C371.255 2.18965 366.82 1.20086 362.342 1.29719H343.023V47.1472H362.342C366.82 47.2435 371.255 46.2547 375.269 44.2652ZM349.572 41.4487V6.99569H361.949C365.358 6.90786 368.738 7.64962 371.798 9.15719C374.482 10.5073 376.723 12.5986 378.255 15.1832C379.829 17.9309 380.621 21.0566 380.547 24.2222C380.615 27.3746 379.822 30.4859 378.255 33.2219C376.729 35.821 374.487 37.9264 371.798 39.2872C368.738 40.7948 365.358 41.5365 361.949 41.4487H349.572Z" fill="#28306E"/>
<path d="M410.278 1.29712L389.519 47.1471H396.264L401.293 35.6846H425.668L430.71 47.1471H437.586L416.761 1.29712H410.278ZM403.598 30.4446L413.487 7.95192L423.376 30.4446H403.598Z" fill="#28306E"/>
<path d="M477.272 35.4619L449.767 1.29712H444.397V47.1471H450.946V12.9823L478.45 47.1471H483.82V1.29712H477.272V35.4619Z" fill="#28306E"/>
<path d="M504.121 1.29712H497.573V47.1471H504.121V1.29712Z" fill="#28306E"/>
<path d="M552.124 47.1471H559L538.175 1.29712H531.757L510.998 47.1471H517.743L522.772 35.6846H547.081L552.124 47.1471ZM525.012 30.4446L534.9 7.95192L544.855 30.4446H525.012Z" fill="#28306E"/>
<path d="M213.62 85.3992L194.746 117.612L175.637 85.3992H170.267V131.249H176.554V98.0276L193.122 125.682H196.135L212.703 97.818L212.768 131.249H219.055L218.99 85.3992H213.62Z" fill="#28306E"/>
<path d="M246.625 85.3992L225.866 131.249H232.611L237.64 119.787H262.028L267.057 131.249H273.933L253.108 85.3992H246.625ZM239.946 114.547L249.834 92.054L259.723 114.547H239.946Z" fill="#28306E"/>
<path d="M271.838 91.0977H287.555V131.249H294.038V91.0977H309.755V85.3992H271.838V91.0977Z" fill="#28306E"/>
<path d="M354.313 91.5169C352.083 89.39 349.457 87.7211 346.585 86.6044C340.325 84.2723 333.435 84.2723 327.175 86.6044C324.296 87.7257 321.669 89.409 319.447 91.5562C317.257 93.6742 315.52 96.2144 314.339 99.0232C311.894 104.983 311.894 111.666 314.339 117.625C315.528 120.422 317.265 122.952 319.447 125.066C321.681 127.208 324.316 128.887 327.201 130.005C330.304 131.204 333.606 131.804 336.933 131.773C340.232 131.811 343.508 131.219 346.585 130.031C349.462 128.924 352.09 127.254 354.313 125.118C356.515 123.026 358.255 120.496 359.421 117.691C361.831 111.679 361.831 104.969 359.421 98.9577C358.252 96.1504 356.512 93.6166 354.313 91.5169ZM353.331 115.333C352.467 117.429 351.199 119.334 349.598 120.94C347.989 122.538 346.073 123.794 343.966 124.634C341.729 125.525 339.34 125.97 336.933 125.944C334.499 125.972 332.084 125.527 329.821 124.634C327.707 123.792 325.784 122.535 324.164 120.938C322.545 119.34 321.261 117.434 320.39 115.333C318.609 110.83 318.609 105.818 320.39 101.316C321.265 99.2163 322.55 97.3123 324.169 95.7153C325.788 94.1183 327.71 92.8602 329.821 92.0147C332.084 91.1214 334.499 90.6765 336.933 90.7047C339.34 90.6787 341.729 91.1237 343.966 92.0147C346.076 92.854 347.993 94.1155 349.598 95.722C351.201 97.3199 352.47 99.2215 353.331 101.316C355.129 105.815 355.129 110.834 353.331 115.333Z" fill="#28306E"/>
<path d="M396.853 109.176C395.135 108.222 393.311 107.475 391.418 106.949C389.44 106.385 387.489 105.874 385.498 105.416C383.507 104.957 381.739 104.433 380.102 103.87C378.636 103.409 377.28 102.651 376.12 101.643C375.597 101.137 375.189 100.524 374.924 99.8456C374.66 99.1674 374.545 98.44 374.588 97.7132C374.575 96.4014 374.973 95.1186 375.727 94.0452C376.66 92.8366 377.926 91.9261 379.368 91.4252C381.407 90.7079 383.56 90.3747 385.72 90.4427C387.868 90.4515 390.005 90.7512 392.073 91.3335C394.288 91.9339 396.39 92.8942 398.294 94.1762L400.455 88.9362C398.372 87.5525 396.069 86.5336 393.644 85.9232C391.06 85.2316 388.396 84.8793 385.72 84.8752C382.32 84.7573 378.934 85.3739 375.793 86.683C373.444 87.676 371.439 89.339 370.03 91.4645C368.79 93.4221 368.144 95.6972 368.17 98.0145C368.077 100.114 368.601 102.195 369.676 104.001C370.66 105.543 372.009 106.816 373.605 107.708C375.328 108.662 377.151 109.422 379.041 109.975C381.032 110.551 382.97 111.075 384.974 111.507C386.802 111.908 388.604 112.42 390.37 113.04C391.844 113.543 393.202 114.336 394.365 115.372C394.88 115.857 395.285 116.447 395.552 117.103C395.818 117.758 395.941 118.464 395.91 119.171C395.924 120.481 395.51 121.759 394.731 122.813C393.781 123.991 392.506 124.866 391.064 125.328C388.952 126.014 386.735 126.324 384.515 126.245C381.632 126.254 378.77 125.743 376.068 124.738C373.628 123.89 371.364 122.603 369.388 120.939L366.965 126.048C369.183 127.949 371.782 129.351 374.588 130.162C377.817 131.244 381.202 131.788 384.607 131.773C388.023 131.885 391.424 131.273 394.587 129.978C396.963 128.997 399.002 127.344 400.455 125.223C401.702 123.301 402.362 121.056 402.354 118.765C402.446 116.694 401.922 114.643 400.848 112.87C399.839 111.33 398.467 110.061 396.853 109.176Z" fill="#28306E"/>
<path d="M120.182 0.773193H10.7923C7.93108 0.77666 5.18802 1.91504 3.16482 3.93863C1.14162 5.96222 0.00346607 8.7058 0 11.5676V120.979C0.00346607 123.841 1.14162 126.584 3.16482 128.608C5.18802 130.631 7.93108 131.77 10.7923 131.773H120.182C123.044 131.77 125.787 130.631 127.81 128.608C129.833 126.584 130.971 123.841 130.975 120.979V11.5676C130.971 8.7058 129.833 5.96222 127.81 3.93863C125.787 1.91504 123.044 0.77666 120.182 0.773193ZM125.932 11.5676V25.8073L96.3974 68.3823L84.2298 50.1995C93.1924 37.2397 97.178 21.4802 95.4544 5.81669H120.182C121.706 5.82015 123.167 6.42716 124.244 7.50491C125.322 8.58267 125.929 10.0434 125.932 11.5676ZM90.3725 5.81669C90.6616 8.19868 90.806 10.596 90.8048 12.9955C90.8021 24.5813 87.4696 35.9221 81.2043 45.6669L68.1068 26.0169C67.7738 25.4937 67.2788 25.0938 66.6974 24.8782C66.116 24.6626 65.48 24.6432 64.8865 24.8227C64.293 25.0023 63.7744 25.3711 63.41 25.8729C63.0455 26.3747 62.8551 26.9819 62.8679 27.602V63.9676C60.3557 65.569 57.7291 66.9832 55.0094 68.1989L57.105 72.8232C59.0958 71.9324 61.0342 70.9368 62.881 69.8757V117.848C53.1098 112.212 44.964 104.142 39.2364 94.4234C33.5088 84.7046 30.3945 73.6682 30.1967 62.3884C29.9989 51.1087 32.7243 39.9698 38.1077 30.0561C43.491 20.1424 51.3488 11.7917 60.9163 5.81669H90.3725ZM78.0871 50.0685C75.12 53.8921 71.7081 57.3487 67.9235 60.3651V34.8332L78.0871 50.0685ZM5.04253 120.979V11.5676C5.04599 10.0434 5.65288 8.58267 6.73042 7.50491C7.80797 6.42716 9.26844 5.82015 10.7923 5.81669H52.1541C43.7104 12.3825 36.885 20.7981 32.203 30.416C27.521 40.0339 25.1071 50.5979 25.1471 61.2952C25.1312 74.1386 28.6401 86.7399 35.2914 97.726C41.9428 108.712 51.4814 117.661 62.8679 123.599V126.73H10.7923C9.26844 126.726 7.80797 126.119 6.73042 125.041C5.65288 123.964 5.04599 122.503 5.04253 120.979ZM67.9104 126.73V126.009C68.4736 126.258 69.0499 126.507 69.6262 126.73H67.9104ZM120.169 126.73H95.6115C86.0349 126.723 76.5787 124.594 67.9235 120.494V66.6531C72.8231 63.207 77.2296 59.1082 81.021 54.4701L97.0785 78.4431L101.257 75.6397L99.4098 72.8232L125.932 34.6367V120.979C125.929 122.503 125.322 123.964 124.244 125.041C123.167 126.119 121.706 126.726 120.182 126.73H120.169Z" fill="#28306E"/>
</svg>
