<svg width="61" height="61" viewBox="0 0 61 61" fill="none" xmlns="http://www.w3.org/2000/svg">
<path d="M55.8988 0.081543H5.01968C3.68887 0.0831551 2.41303 0.612531 1.47201 1.55355C0.530988 2.49458 0.00161212 3.77042 0 5.10122V55.9803C0.00161212 57.3111 0.530988 58.587 1.47201 59.528C2.41303 60.469 3.68887 60.9984 5.01968 61H55.8988C57.2296 60.9984 58.5054 60.469 59.4464 59.528C60.3875 58.587 60.9169 57.3111 60.9185 55.9803V5.10122C60.9169 3.77042 60.3875 2.49458 59.4464 1.55355C58.5054 0.612531 57.2296 0.0831551 55.8988 0.081543ZM58.5731 5.10122V11.7231L44.836 31.5216L39.1767 23.0661C43.3453 17.0394 45.1991 9.71083 44.3974 2.4269H55.8988C56.6076 2.42851 57.2868 2.71079 57.788 3.21197C58.2892 3.71316 58.5715 4.39244 58.5731 5.10122ZM42.0337 2.4269C42.1682 3.53459 42.2353 4.64942 42.2348 5.76524C42.2335 11.1529 40.6835 16.4267 37.7694 20.9583L31.6776 11.8205C31.5227 11.5772 31.2925 11.3913 31.022 11.291C30.7516 11.1908 30.4558 11.1817 30.1798 11.2652C29.9037 11.3487 29.6625 11.5202 29.493 11.7536C29.3235 11.9869 29.2349 12.2693 29.2409 12.5576V29.4686C28.0724 30.2133 26.8508 30.871 25.5858 31.4363L26.5604 33.5867C27.4864 33.1725 28.388 32.7095 29.247 32.216V54.5244C24.7023 51.9036 20.9135 48.1508 18.2495 43.6314C15.5855 39.1119 14.137 33.9797 14.045 28.7343C13.953 23.4889 15.2206 18.309 17.7245 13.6989C20.2284 9.08875 23.8832 5.20543 28.3332 2.4269H42.0337ZM36.3196 23.0052C34.9395 24.7833 33.3526 26.3906 31.5923 27.7934V15.9203L36.3196 23.0052ZM2.34536 55.9803V5.10122C2.34697 4.39244 2.62924 3.71316 3.13043 3.21197C3.63161 2.71079 4.3109 2.42851 5.01968 2.4269H24.2577C20.3304 5.48019 17.1558 9.39365 14.9781 13.8662C12.8005 18.3388 11.6777 23.2513 11.6963 28.2259C11.6889 34.1984 13.321 40.0583 16.4146 45.1672C19.5083 50.276 23.9448 54.4377 29.2409 57.1987V58.6546H5.01968C4.3109 58.653 3.63161 58.3708 3.13043 57.8696C2.62924 57.3684 2.34697 56.6891 2.34536 55.9803ZM31.5862 58.6546V58.3196C31.8482 58.4353 32.1162 58.5511 32.3843 58.6546H31.5862ZM55.8927 58.6546H44.4705C40.0162 58.6517 35.618 57.6613 31.5923 55.7549V30.7174C33.8712 29.1149 35.9208 27.2089 37.6842 25.052L45.1528 36.2001L47.0961 34.8964L46.2371 33.5867L58.5731 15.829V55.9803C58.5715 56.6891 58.2892 57.3684 57.788 57.8696C57.2868 58.3708 56.6076 58.653 55.8988 58.6546H55.8927Z" fill="#28306E"/>
</svg>
