<svg width="200" height="200" viewBox="0 0 200 200" fill="none" xmlns="http://www.w3.org/2000/svg">
<path d="M44.1043 49.994C31.9761 63.5395 25.1859 81.0321 24.9988 99.2128C24.5378 140.756 58.4558 174.916 99.9988 174.994C141.483 175.072 174.999 141.467 174.999 99.994C174.999 59.1581 142.362 25.9276 101.757 24.994C101.528 24.9867 101.3 25.0255 101.087 25.108C100.874 25.1905 100.679 25.3152 100.515 25.4745C100.351 25.6338 100.221 25.8245 100.132 26.0352C100.044 26.246 99.9981 26.4724 99.9988 26.7011V59.369" stroke="#28306E" stroke-width="10" stroke-linecap="round" stroke-linejoin="round"/>
<path d="M91.1635 108.833L60.3041 64.6923C59.8772 64.0807 59.6792 63.3384 59.7447 62.5955C59.8103 61.8525 60.1352 61.1563 60.6626 60.6289C61.19 60.1015 61.8862 59.7766 62.6291 59.711C63.3721 59.6455 64.1144 59.8435 64.726 60.2705L108.867 91.1298C111.574 93.0798 113.405 96.0172 113.963 99.3067C114.522 102.596 113.763 105.973 111.851 108.708C109.938 111.442 107.026 113.313 103.745 113.917C100.464 114.521 97.0763 113.809 94.3159 111.935C93.0953 111.089 92.029 110.04 91.1635 108.833Z" fill="#28306E"/>
</svg>
